<?xml version="1.0" standalone="no"?>
<!DOCTYPE svg PUBLIC "-//W3C//DTD SVG 1.1//EN" "http://www.w3.org/Graphics/SVG/1.1/DTD/svg11.dtd" >
<svg>
<metadata>
Created by FontForge 20110222 at Mon Mar  7 13:16:13 2011
 By www-data
Modern and elegant headline free font.
</metadata>
<defs>
<font id="Age" horiz-adv-x="629" >
  <font-face 
    font-family="Age"
    font-weight="400"
    font-stretch="normal"
    units-per-em="1000"
    panose-1="2 0 0 0 0 0 0 0 0 0"
    ascent="750"
    descent="-250"
    x-height="589"
    cap-height="700"
    bbox="-128 -212.13 1013.53 841.298"
    underline-thickness="50"
    underline-position="-50"
    unicode-range="U+0020-20AC"
  />
    <missing-glyph />
    <glyph glyph-name="b" unicode="b" horiz-adv-x="628" 
d="M232 589h164c117 0 212 -95 212 -212v-165c0 -117 -95 -212 -212 -212h-164c-117 0 -212 95 -212 212v489h183v-489c0 -16 13 -29 29 -29h164c16 0 29 13 29 29v165c0 16 -13 29 -29 29h-164v183z" />
    <glyph glyph-name="a" unicode="a" 
d="M397 0h-165c-117 0 -212 95 -212 212v165c0 117 95 212 212 212h165c117 0 212 -95 212 -212v-377h-183v377c0 16 -13 29 -29 29h-165c-16 0 -29 -13 -29 -29v-165c0 -16 13 -29 29 -29h165v-183z" />
    <glyph glyph-name="c" unicode="c" horiz-adv-x="539" 
d="M518 0h-285c-118 0 -213 95 -213 212v165c0 117 95 212 213 212h285v-183h-285c-17 0 -30 -13 -30 -29v-165c0 -16 13 -29 30 -29h285v-183z" />
    <glyph glyph-name="d" unicode="d" 
d="M232 589h165v-183h-165c-16 0 -29 -13 -29 -29v-165c0 -16 13 -29 29 -29h165c16 0 29 13 29 29v489h183v-489c0 -117 -95 -212 -212 -212h-165c-117 0 -212 95 -212 212v165c0 117 95 212 212 212z" />
    <glyph glyph-name="e" unicode="e" horiz-adv-x="622" 
d="M597 337l-40 -126h-183l49 158c6 20 -6 37 -27 37h-164c-16 0 -29 -13 -29 -29v-165c0 -16 13 -29 29 -29h374v-183h-374c-117 0 -212 95 -212 212v165c0 117 95 212 212 212h164c130 0 248 -102 201 -252z" />
    <glyph glyph-name="f" unicode="f" horiz-adv-x="361" 
d="M232 701h114v-183h-121c-19 0 -22 -11 -22 -28h143v-183h-143v-307h-183v489c0 117 95 212 212 212z" />
    <glyph glyph-name="g" unicode="g" horiz-adv-x="627" 
d="M231 589h381v-105l-46 -9c32 -26 41 -62 41 -98v-59c0 -117 -83 -203 -200 -203h-156c-21 0 -21 -33 0 -33h156c117 0 200 -77 200 -194h-183c0 16 -9 22 -24 22h-174c-203 0 -259 164 -154 267c-33 38 -53 87 -53 141v59c0 117 95 212 212 212zM395 406h-164
c-16 0 -29 -13 -29 -29v-64c0 -16 13 -29 29 -29h164c16 0 29 13 29 29v64c0 16 -13 29 -29 29z" />
    <glyph glyph-name="h" unicode="h" 
d="M203 0h-183v700h183v-111h193c117 0 213 -95 213 -212v-377h-183v377c0 16 -14 29 -30 29h-193v-406z" />
    <glyph glyph-name="j" unicode="j" horiz-adv-x="267" 
d="M12 71h26c19 0 25 12 25 28v465h183v-464c0 -121 -69 -212 -208 -212h-26v183zM61 589v111h186v-111h-186z" />
    <glyph glyph-name="k" unicode="k" horiz-adv-x="620" 
d="M203 0h-183v700h183v-310h133c13 0 24 9 28 20l55 179h191l-67 -220c-10 -31 -25 -54 -54 -70c29 -16 44 -39 54 -70l70 -229h-191l-58 187c-4 12 -15 20 -28 20h-133v-207z" />
    <glyph glyph-name="l" unicode="l" horiz-adv-x="274" 
d="M232 182h29v-183h-29c-117 0 -212 95 -212 212c0 164 -1 326 -1 489h183c0 -163 1 -326 1 -489c0 -16 13 -29 29 -29z" />
    <glyph glyph-name="m" unicode="m" horiz-adv-x="995" 
d="M377 406h-144c-16 0 -30 -13 -30 -29v-377h-183v377c0 117 96 212 213 212h144c45 0 96 -29 121 -66c24 37 76 66 120 66h145c117 0 212 -95 212 -212v-377h-183v377c0 16 -13 29 -29 29h-145c-16 0 -29 -13 -29 -29v-377h-183v377c0 16 -13 29 -29 29z" />
    <glyph glyph-name="n" unicode="n" horiz-adv-x="628" 
d="M396 406h-164c-16 0 -29 -13 -29 -29v-377h-183v377c0 117 95 212 212 212h164c117 0 212 -95 212 -212v-377h-183v377c0 16 -13 29 -29 29z" />
    <glyph glyph-name="o" unicode="o" 
d="M233 589h164c117 0 212 -95 212 -212v-165c0 -117 -95 -212 -212 -212h-164c-117 0 -213 95 -213 212v165c0 117 96 212 213 212zM397 406h-164c-16 0 -30 -13 -30 -29v-165c0 -16 14 -29 30 -29h164c16 0 29 13 29 29v165c0 16 -13 29 -29 29z" />
    <glyph glyph-name="p" unicode="p" horiz-adv-x="628" 
d="M397 0h-165v183h165c16 0 29 13 29 29v165c0 16 -13 29 -29 29h-165c-16 0 -29 -13 -29 -29v-489h-183v489c0 117 95 212 212 212h165c117 0 212 -95 212 -212v-165c0 -117 -95 -212 -212 -212z" />
    <glyph glyph-name="q" unicode="q" horiz-adv-x="628" 
d="M396 0h-164c-118 0 -213 95 -213 212v165c0 117 95 212 213 212h164c117 0 212 -95 212 -212v-489h-183v489c0 16 -13 29 -29 29h-164c-17 0 -30 -13 -30 -29v-165c0 -16 13 -29 30 -29h164v-183z" />
    <glyph glyph-name="r" unicode="r" horiz-adv-x="356" 
d="M232 589h114v-183h-114c-16 0 -29 -13 -29 -29v-377h-183v377c0 117 95 212 212 212z" />
    <glyph glyph-name="s" unicode="s" horiz-adv-x="474" 
d="M323 589h136v-183h-121c-21 0 -34 -18 -28 -37l43 -140c40 -130 -73 -229 -198 -229h-140v183h126c20 0 31 18 27 37l-43 140c-40 130 73 229 198 229z" />
    <glyph glyph-name="t" unicode="t" horiz-adv-x="363" 
d="M345 0h-113c-117 0 -212 96 -212 212v488h183v-111h142v-179h-142v-199c0 -17 5 -28 23 -28h119v-183z" />
    <glyph glyph-name="u" unicode="u" horiz-adv-x="628" 
d="M232 183h164c16 0 29 13 29 29v377h183v-377c0 -117 -95 -212 -212 -212h-164c-117 0 -212 95 -212 212v377h183v-377c0 -16 13 -29 29 -29z" />
    <glyph glyph-name="v" unicode="v" horiz-adv-x="631" 
d="M232 183h56c13 0 23 8 27 20l118 386h190l-128 -423c-28 -93 -106 -166 -207 -166h-56c-117 0 -212 95 -212 212v377h183v-377c0 -16 13 -29 29 -29z" />
    <glyph glyph-name="w" unicode="w" horiz-adv-x="994" 
d="M618 183h144c16 0 29 13 29 29v377h183v-377c0 -117 -95 -212 -212 -212h-144c-45 0 -97 28 -121 66c-24 -38 -76 -66 -121 -66h-144c-117 0 -212 95 -212 212v377h182v-377c0 -16 14 -29 30 -29h144c16 0 29 13 29 29v377h183v-377c0 -16 13 -29 30 -29z" />
    <glyph glyph-name="x" unicode="x" horiz-adv-x="614" 
d="M330 207h-47c-12 0 -23 -9 -27 -20l-58 -187h-190l70 228c9 31 24 55 53 71c-29 15 -44 39 -53 70l-68 220h191l55 -179c4 -12 15 -20 28 -20h46c13 0 24 8 27 20l56 179h190l-67 -220c-9 -31 -25 -55 -54 -70c29 -16 45 -40 54 -71l70 -228h-191l-58 187
c-3 11 -14 20 -27 20z" />
    <glyph glyph-name="y" unicode="y" horiz-adv-x="642" 
d="M343 183h86v406h183v-701h-183v114c-10 -1 -20 -2 -30 -2h-56c-101 0 -179 73 -207 166l-128 423h190l118 -386c4 -12 15 -20 27 -20z" />
    <glyph glyph-name="z" unicode="z" horiz-adv-x="480" 
d="M13 406v183h327c45 0 66 -13 55 -61l-104 -345h174v-183h-343c-42 0 -53 23 -45 60l104 346h-168z" />
    <glyph glyph-name="space" unicode=" " horiz-adv-x="238" 
 />
    <glyph glyph-name="at" unicode="@" horiz-adv-x="500" 
 />
    <glyph glyph-name="A" unicode="A" 
d="M203 489v-103h194v-183h-194v-203h-183v489c0 117 95 212 212 212h165c117 0 212 -95 212 -212v-489h-183v489c0 16 -13 29 -29 29h-165c-16 0 -29 -13 -29 -29z" />
    <glyph glyph-name="B" unicode="B" horiz-adv-x="620" 
d="M202 183h180c56 0 57 76 -1 76h-149v183h132c51 0 48 79 0 79h-132c-16 0 -30 -13 -30 -29v-233v-76zM392 0h-372v489c0 117 79 212 196 212h152c187 0 269 -226 165 -335c127 -79 102 -366 -141 -366z" />
    <glyph glyph-name="C" unicode="C" horiz-adv-x="537" 
d="M518 0h-285c-117 0 -212 95 -212 212v277c0 117 95 212 212 212h285v-183h-285c-16 0 -29 -13 -29 -29v-277c0 -16 13 -29 29 -29h285v-183z" />
    <glyph glyph-name="D" unicode="D" horiz-adv-x="628" 
d="M396 0h-376v701h376c117 0 212 -95 212 -212v-277c0 -117 -95 -212 -212 -212zM203 518v-335h193c16 0 29 13 29 29v277c0 16 -13 29 -29 29h-193z" />
    <glyph glyph-name="E" unicode="E" horiz-adv-x="536" 
d="M517 0h-285c-117 0 -212 95 -212 212v277c0 117 95 212 212 212h285v-183h-285c-16 0 -29 -13 -29 -29v-47h314v-183h-314v-47c0 -16 13 -29 29 -29h285v-183z" />
    <glyph glyph-name="F" unicode="F" horiz-adv-x="504" 
d="M203 0h-183v489c0 117 95 212 212 212h257v-183h-257c-16 0 -29 -13 -29 -29v-47h286v-183h-286v-259z" />
    <glyph glyph-name="G" unicode="G" horiz-adv-x="602" 
d="M582 0h-349c-117 0 -213 95 -213 212v276c0 117 96 212 213 212h349v-183h-349c-16 0 -30 -13 -30 -29v-276c0 -16 14 -29 30 -29h166v162h183v-345z" />
    <glyph glyph-name="H" unicode="H" 
d="M426 700h183v-701h-183v701zM20 700h183v-259h194v-183h-194v-259h-183v701z" />
    <glyph glyph-name="I" unicode="I" horiz-adv-x="225" 
d="M22 700h183v-700h-183v700z" />
    <glyph glyph-name="J" unicode="J" horiz-adv-x="556" 
d="M354 700h183v-488c0 -117 -95 -212 -212 -212h-97c-118 0 -213 95 -213 212v59h183v-59c0 -16 13 -29 30 -29h97c16 0 29 13 29 29v488z" />
    <glyph glyph-name="K" unicode="K" horiz-adv-x="619" 
d="M204 0h-183v700h183v-700zM233 263v183h84c12 0 23 8 27 20l73 234h191l-85 -275c-10 -31 -25 -55 -54 -70c29 -16 45 -40 54 -71l87 -284h-191l-75 243c-4 12 -15 20 -27 20h-84z" />
    <glyph glyph-name="L" unicode="L" horiz-adv-x="478" 
d="M20 700h183v-488c0 -16 13 -29 29 -29h231v-183h-231c-117 0 -212 95 -212 212v488z" />
    <glyph glyph-name="M" unicode="M" horiz-adv-x="854" 
d="M389 557l33 -337h4h5l33 337c21 225 369 203 369 -18v-539h-183v451l4 116l-9 1l-16 -113l-30 -227c-27 -213 -318 -213 -346 0l-29 227l-17 113l-9 -1l5 -116v-451h-183v539c0 221 347 243 369 18z" />
    <glyph glyph-name="N" unicode="N" horiz-adv-x="660" 
d="M457 701h183v-536c0 -185 -196 -221 -304 -127c-29 26 -51 64 -62 122c-19 94 -37 201 -56 295l-16 113l-10 -1l11 -116v-451h-183v539c0 185 196 222 303 127c29 -25 51 -64 63 -122c19 -93 37 -201 56 -294l16 -114l9 1l-10 132v432z" />
    <glyph glyph-name="O" unicode="O" 
d="M609 488v-276c0 -117 -95 -212 -212 -212h-165c-117 0 -212 95 -212 212v276c0 117 95 212 212 212h165c117 0 212 -95 212 -212zM426 212v276c0 16 -13 29 -29 29h-165c-16 0 -29 -13 -29 -29v-276c0 -16 13 -29 29 -29h165c16 0 29 13 29 29z" />
    <glyph glyph-name="P" unicode="P" horiz-adv-x="628" 
d="M397 113h-164v183h164c16 0 29 13 29 29v164c0 16 -13 29 -29 29h-164c-16 0 -29 -13 -29 -29v-489h-183v489c0 117 95 212 212 212h164c117 0 212 -95 212 -212v-164c0 -117 -95 -212 -212 -212z" />
    <glyph glyph-name="Q" unicode="Q" 
d="M232 700h165c117 0 212 -95 212 -212v-326l-183 24v302c0 16 -13 29 -29 29h-165c-16 0 -29 -13 -29 -29v-277c0 -16 13 -27 29 -29l376 -46v-175l-386 40c-116 12 -202 93 -202 210v277c0 117 95 212 212 212z" />
    <glyph glyph-name="R" unicode="R" horiz-adv-x="635" 
d="M378 168h-86h-59v183h170c16 0 29 13 29 29v109c0 16 -13 29 -29 29h-170c-16 0 -30 -13 -30 -29v-489h-183v489c0 117 96 212 213 212h164c117 0 218 -95 218 -212v-109c0 -57 -23 -101 -73 -130c41 -12 53 -48 60 -86l26 -164h-198l-28 150c-4 11 -12 17 -24 18z" />
    <glyph glyph-name="S" unicode="S" horiz-adv-x="500" 
d="M318 701h171v-183h-154c-20 0 -33 -18 -27 -37l79 -252c40 -130 -74 -229 -198 -229h-173v183h155c21 0 33 18 27 37l-78 252c-40 131 73 229 198 229z" />
    <glyph glyph-name="T" unicode="T" horiz-adv-x="509" 
d="M163 523h-150v177h482v-177h-149v-523h-183v523z" />
    <glyph glyph-name="U" unicode="U" horiz-adv-x="628" 
d="M425 700h183v-488c0 -117 -95 -212 -212 -212h-164c-117 0 -212 95 -212 212v488h183v-488c0 -16 13 -29 29 -29h164c16 0 29 13 29 29v488z" />
    <glyph glyph-name="V" unicode="V" horiz-adv-x="640" 
d="M232 182h34c13 0 24 8 28 20l151 498h190l-162 -535c-28 -93 -106 -166 -207 -166h-34c-117 0 -212 95 -212 212v489h183v-489c0 -16 13 -29 29 -29z" />
    <glyph glyph-name="W" unicode="W" horiz-adv-x="995" 
d="M618 182h145c16 0 29 13 29 29v489h183v-489c0 -117 -95 -212 -212 -212h-145c-45 0 -96 29 -120 66c-25 -37 -76 -66 -121 -66h-145c-117 0 -212 95 -212 212v489h183v-489c0 -16 13 -29 29 -29h145c16 0 29 13 29 29v489h183v-489c0 -16 13 -29 29 -29z" />
    <glyph glyph-name="X" unicode="X" 
d="M326 262h-23c-13 0 -24 -8 -27 -20l-75 -242h-191l87 284c9 31 25 54 54 70c-29 16 -45 39 -54 70l-84 276h190l73 -234c4 -12 15 -21 27 -21h23c13 0 24 9 27 21l73 234h190l-84 -276c-9 -31 -25 -54 -54 -70c29 -16 45 -39 54 -70l87 -284h-190l-76 242
c-3 12 -14 20 -27 20z" />
    <glyph glyph-name="Y" unicode="Y" horiz-adv-x="626" 
d="M615 700l-84 -299c-21 -76 -69 -126 -126 -151v-250h-183v252c-57 25 -105 75 -126 149l-85 299h191l73 -258c12 -36 62 -47 77 0l72 258h191z" />
    <glyph glyph-name="Z" unicode="Z" horiz-adv-x="528" 
d="M80 60l138 457h-202v183h371c45 0 66 -12 55 -60l-139 -457h211v-183h-390c-41 0 -52 23 -44 60z" />
    <glyph glyph-name="exclam" unicode="!" horiz-adv-x="226" 
d="M20 136v-137h186v137h-186zM20 700h186v-540h-186v540z" />
    <glyph glyph-name="quotedbl" unicode="&#x22;" horiz-adv-x="408" 
d="M187 702v-184h-168v184h168zM387 702v-184h-168v184h168z" />
    <glyph glyph-name="quotesingle" unicode="'" horiz-adv-x="205" 
d="M187 702v-184h-168v184h168z" />
    <glyph glyph-name="hyphen" unicode="-" horiz-adv-x="270" 
d="M20 397h231v-165h-231v165z" />
    <glyph glyph-name="one" unicode="1" horiz-adv-x="322" 
d="M302 0h-183v488c0 16 -13 30 -29 30h-73v183h73c117 0 212 -96 212 -213v-488z" />
    <glyph glyph-name="two" unicode="2" horiz-adv-x="488" 
d="M14 701h196c125 0 211 -98 170 -228c-30 -97 -57 -195 -87 -291h180v-182h-361c-42 0 -53 22 -45 60c43 142 88 280 132 421c5 18 -2 37 -24 37h-161v183z" />
    <glyph glyph-name="zero" unicode="0" horiz-adv-x="627" 
d="M231 701h164c117 0 213 -96 213 -213v-276c0 -117 -96 -212 -213 -212h-164c-117 0 -212 95 -212 212v276c0 117 95 213 212 213zM310 172h90c17 0 30 14 30 31v178zM317 523h-88c-17 0 -30 -13 -30 -30v-174z" />
    <glyph glyph-name="three" unicode="3" horiz-adv-x="515" 
d="M418 356c120 -59 133 -356 -119 -356h-279v183h261c41 0 41 81 0 81h-261v180h257c39 0 39 80 0 80h-257v177h257c208 0 267 -263 141 -345z" />
    <glyph glyph-name="four" unicode="4" horiz-adv-x="564" 
d="M114 701h187l-85 -277c-4 -20 7 -37 27 -37h119v314h182v-701h-182v204h-141c-137 0 -234 87 -190 229z" />
    <glyph glyph-name="five" unicode="5" horiz-adv-x="517" 
d="M288 0h-268v183h268c16 0 29 13 29 29v57c0 16 -13 29 -29 29h-268v403h463v-179h-302v-41h107c124 0 212 -87 212 -212v-57c0 -117 -95 -212 -212 -212z" />
    <glyph glyph-name="six" unicode="6" horiz-adv-x="594" 
d="M232 477h132c117 0 212 -95 212 -212v-53c0 -117 -95 -212 -212 -212h-132c-117 0 -212 95 -212 212v277c0 117 95 212 212 212h327v-183h-327c-16 0 -29 -13 -29 -29v-277c0 -16 13 -29 29 -29h132c16 0 29 13 29 29v53c0 16 -13 29 -29 29h-132v183z" />
    <glyph glyph-name="seven" unicode="7" horiz-adv-x="464" 
d="M17 701h243c138 0 221 -95 177 -229l-151 -472h-191l154 481c6 19 -6 37 -27 37h-205v183z" />
    <glyph glyph-name="eight" unicode="8" horiz-adv-x="576" 
d="M485 356c120 -58 132 -356 -119 -356h-40h-75h-40c-251 0 -239 298 -119 356c-125 82 -66 345 141 345h111c207 0 267 -263 141 -345zM348 183c54 0 52 92 0 92h-119c-51 -2 -50 -94 0 -92h119zM344 438c46 -1 47 85 0 86h-111c-43 0 -43 -86 0 -86h111z" />
    <glyph glyph-name="nine" unicode="9" horiz-adv-x="592" 
d="M360 223h-132c-117 0 -212 95 -212 212v54c0 117 95 212 212 212h132c117 0 212 -95 212 -212v-277c0 -117 -95 -212 -212 -212h-326v183h326c16 0 29 13 29 29v277c0 16 -13 29 -29 29h-132c-16 0 -29 -13 -29 -29v-54c0 -16 13 -29 29 -29h132v-183z" />
    <glyph glyph-name="question" unicode="?" horiz-adv-x="477" 
d="M17 700h262c137 0 220 -108 151 -244c-62 -121 -114 -163 -114 -255v-41h-180v43c1 119 54 143 113 277c8 18 1 37 -20 37h-212v183zM132 136v-137h186v137h-186z" />
    <glyph glyph-name="comma" unicode="," horiz-adv-x="219" 
d="M198 151v-156c0 -117 -47 -211 -211 -184l1 154c22 0 36 7 36 31v155h174z" />
    <glyph glyph-name="period" unicode="." horiz-adv-x="225" 
d="M19 -1v151h186v-151h-186z" />
    <glyph glyph-name="colon" unicode=":" horiz-adv-x="225" 
d="M19 -1v151h186v-151h-186zM19 338v151h186v-151h-186z" />
    <glyph glyph-name="semicolon" unicode=";" horiz-adv-x="224" 
d="M19 338v151h186v-151h-186zM201 151v-156c0 -117 -47 -199 -213 -184l1 154c22 0 35 7 35 31v155h177z" />
    <glyph glyph-name="grave" unicode="`" horiz-adv-x="294" 
d="M18 781h223l44 -90h-194z" />
    <glyph glyph-name="circumflex" unicode="&#x2c6;" horiz-adv-x="460" 
d="M11 686l58 73c12 14 25 17 42 17h236c17 0 29 -4 40 -17l58 -73h-193l-24 32h-6l-25 -32h-186z" />
    <glyph glyph-name="acute" unicode="&#xb4;" horiz-adv-x="300" 
d="M62 782h223l-73 -90h-194z" />
    <glyph glyph-name="cedilla" unicode="&#xb8;" horiz-adv-x="218" 
d="M5 -166l20 56c39 -34 63 21 7 18l38 91h113l-26 -64c39 -13 60 -39 50 -79c-19 -74 -150 -97 -202 -22z" />
    <glyph glyph-name="tilde" unicode="&#x2dc;" horiz-adv-x="402" 
d="M72 609h-9l-45 59c138 97 220 -15 319 41h13l40 -46c-142 -128 -212 14 -318 -54z" />
    <glyph glyph-name="dieresis" unicode="&#xa8;" horiz-adv-x="451" 
d="M20 623v89h194v-89h-194zM238 623v89h194v-89h-194z" />
    <glyph glyph-name="florin" unicode="&#x192;" horiz-adv-x="415" 
d="M9 307l13 183h41c8 116 110 211 227 211h114l-13 -183h-121c-19 0 -23 -11 -24 -28h143l-13 -183h-143l-21 -302c-10 -121 -112 -209 -227 -209h-113l13 183h120c19 0 23 11 24 27l21 301h-41z" />
    <glyph glyph-name="quotesinglbase" unicode="&#x201a;" horiz-adv-x="217" 
d="M198 151v-156c0 -117 -47 -211 -211 -184l1 154c22 0 36 7 36 31v155h174z" />
    <glyph glyph-name="quotedblbase" unicode="&#x201e;" horiz-adv-x="453" 
d="M200 151v-156c0 -117 -47 -211 -211 -184l1 154c22 0 36 7 36 31v155h174zM429 151v-156c0 -117 -47 -211 -211 -184l1 154c22 0 36 7 36 31v155h174z" />
    <glyph glyph-name="Zcaron" unicode="&#x17d;" horiz-adv-x="528" 
d="M78 60l138 457h-202v183h371c45 0 66 -12 55 -60l-139 -457h211v-183h-390c-41 0 -52 23 -44 60zM480 795l-64 -60c-13 -11 -28 -14 -46 -14h-261c-19 0 -32 4 -44 14l-64 60h213l26 -26h7l28 26h205z" />
    <glyph glyph-name="zcaron" unicode="&#x17e;" horiz-adv-x="487" 
d="M16 406v183h327c45 0 66 -13 55 -61l-104 -345h174v-183h-343c-42 0 -53 23 -45 60l104 346h-168zM442 696l-60 -61c-12 -12 -25 -15 -43 -15h-241c-17 0 -29 4 -41 15l-59 61h197l25 -27h6l26 27h190z" />
    <glyph glyph-name="exclamdown" unicode="&#xa1;" horiz-adv-x="232" 
d="M209 587v-137h-186v137h186zM209 -114h-186v540h186v-540z" />
    <glyph glyph-name="questiondown" unicode="&#xbf;" horiz-adv-x="483" 
d="M459 -114h-262c-137 0 -220 108 -151 244c62 121 114 163 114 255v41h180v-43c-1 -119 -54 -143 -113 -277c-8 -18 -1 -37 20 -37h212v-183zM344 587v-137h-186v137h186z" />
    <glyph glyph-name="quoteright" unicode="&#x2019;" horiz-adv-x="244" 
d="M228 700v-156c0 -117 -47 -211 -211 -184l1 154c22 0 36 7 36 31v155h174z" />
    <glyph glyph-name="quoteleft" unicode="&#x2018;" horiz-adv-x="248" 
d="M19 366v156c0 117 47 211 211 184l-1 -154c-22 0 -36 -7 -36 -31v-155h-174z" />
    <glyph glyph-name="quotedblleft" unicode="&#x201c;" horiz-adv-x="483" 
d="M19 366v156c0 117 47 211 211 184l-1 -154c-22 0 -36 -7 -36 -31v-155h-174zM253 366v156c0 117 47 211 211 184l-1 -154c-22 0 -36 -7 -36 -31v-155h-174z" />
    <glyph glyph-name="quotedblright" unicode="&#x201d;" horiz-adv-x="485" 
d="M463 702v-156c0 -117 -47 -211 -211 -184l1 154c22 0 36 7 36 31v155h174zM229 702v-156c0 -117 -47 -211 -211 -184l1 154c22 0 36 7 36 31v155h174z" />
    <glyph glyph-name="i" unicode="i" horiz-adv-x="223" 
d="M203 0h-183v564h183v-564zM20 589v111h186v-111h-186z" />
    <glyph glyph-name="cent" unicode="&#xa2;" horiz-adv-x="539" 
d="M238 -43v43h-5c-118 0 -213 95 -213 212v165c0 117 95 212 213 212h5v46h191v-46h89v-183h-285c-17 0 -30 -13 -30 -29v-165c0 -16 13 -29 30 -29h285v-183h-89v-43h-191z" />
    <glyph glyph-name="Ydieresis" unicode="&#x178;" horiz-adv-x="626" 
d="M615 700l-84 -299c-21 -76 -69 -126 -126 -151v-250h-183v252c-57 25 -105 75 -126 149l-85 299h191l73 -258c12 -36 62 -47 77 0l72 258h191zM104 726v89h194v-89h-194zM322 726v89h194v-89h-194z" />
    <glyph glyph-name="oe" unicode="&#x153;" horiz-adv-x="1028" 
d="M233 589h164c45 0 98 -20 120 -59c25 36 76 59 121 59h164c130 0 248 -102 201 -252l-40 -126h-183l49 158c6 20 -6 37 -27 37h-164c-16 0 -29 -13 -29 -29v-165v-4c2 -14 14 -25 29 -25h374v-183h-374c-45 0 -90 22 -121 56c-26 -34 -75 -56 -120 -56h-164
c-117 0 -213 95 -213 212v165c0 117 96 212 213 212zM397 406h-164c-16 0 -30 -13 -30 -29v-165c0 -16 14 -29 30 -29h164c16 0 29 13 29 29v165v3c-2 15 -14 26 -29 26z" />
    <glyph glyph-name="scaron" unicode="&#x161;" horiz-adv-x="474" 
d="M459 589h-136c-125 0 -238 -99 -198 -229l43 -140c4 -19 -7 -37 -27 -37h-126v-183h140c125 0 238 99 198 229l-43 140c-6 19 7 37 28 37h121v183zM516 701l-58 -73c-12 -14 -25 -17 -42 -17h-236c-17 0 -29 4 -40 17l-58 73h193l24 -32h6l25 32h186z" />
    <glyph glyph-name="OE" unicode="&#x152;" horiz-adv-x="944" 
d="M923 0h-285c-45 0 -92 19 -121 56c-25 -38 -75 -56 -120 -56h-165c-117 0 -212 95 -212 212v276c0 117 95 212 212 212h165c44 0 94 -16 120 -53c25 32 76 54 121 54h285v-183h-285c-15 0 -27 -11 -29 -26v-4v-46h314v-183h-314v-47v-4c2 -14 14 -25 29 -25h285v-183z
M426 208v4v276v1v2c-2 15 -14 26 -29 26h-165c-16 0 -29 -13 -29 -29v-276c0 -16 13 -29 29 -29h165c15 0 27 11 29 25z" />
    <glyph glyph-name="Euro" unicode="&#x20ac;" horiz-adv-x="561" 
d="M7 474h36v15c0 117 95 212 212 212h285v-183h-285c-16 0 -29 -13 -29 -29v-15h110v-111h-110v-25h110v-112h-110v-14c0 -16 13 -29 29 -29h285v-183h-285c-117 0 -212 95 -212 212v14h-36v112h36v25h-36v111z" />
    <glyph glyph-name="yen" unicode="&#xa5;" horiz-adv-x="626" 
d="M151 298h40c-42 27 -74 69 -96 133l-85 269h191l73 -228c12 -36 62 -47 77 0l72 228h191l-84 -269c-17 -61 -51 -105 -93 -133h43v-110h-76v-22h76v-105h-76v-61h-183v61h-70v105h70v22h-70v110z" />
    <glyph glyph-name="Scaron" unicode="&#x160;" horiz-adv-x="500" 
d="M489 701h-171c-125 0 -238 -98 -198 -229l78 -252c6 -19 -6 -37 -27 -37h-155v-183h173c124 0 238 99 198 229l-79 252c-6 19 7 37 27 37h154v183zM552 817l-58 -73c-12 -14 -25 -17 -42 -17h-236c-17 0 -29 4 -40 17l-58 73h193l24 -32h6l25 32h186z" />
    <glyph glyph-name="ellipsis" unicode="&#x2026;" horiz-adv-x="675" 
d="M19 -1v151h186v-151h-186zM244 -1v151h186v-151h-186zM469 -1v151h186v-151h-186z" />
    <glyph glyph-name="Ccedilla" unicode="&#xc7;" horiz-adv-x="537" 
d="M220 -116l20 56c39 -34 63 21 7 18l19 42h-33c-117 0 -212 95 -212 212v277c0 117 95 212 212 212h285v-183h-285c-16 0 -29 -13 -29 -29v-277c0 -16 13 -29 29 -29h285v-183h-139l-5 -15c39 -13 58 -41 48 -81c-19 -74 -150 -95 -202 -20z" />
    <glyph glyph-name="AE" unicode="&#xc6;" horiz-adv-x="942" 
d="M203 489v-103h194v-183h-194v-203h-183v489c0 117 95 212 212 212h165c45 0 92 -19 120 -58c24 37 74 58 119 58h285v-183h-285c-15 0 -27 -11 -29 -26v-3v-47h314v-183h-314v-47c0 -16 13 -29 29 -29h285v-183h-285c-117 0 -210 95 -210 212v277c0 16 -13 29 -29 29
h-165c-16 0 -29 -13 -29 -29z" />
    <glyph glyph-name="Agrave" unicode="&#xc0;" 
d="M203 489v-103h194v-183h-194v-203h-183v489c0 117 95 212 212 212h165c117 0 212 -95 212 -212v-489h-183v489c0 16 -13 29 -29 29h-165c-16 0 -29 -13 -29 -29zM139 821h223l44 -90h-194z" />
    <glyph glyph-name="Aacute" unicode="&#xc1;" 
d="M203 489v-103h194v-183h-194v-203h-183v489c0 117 95 212 212 212h165c117 0 212 -95 212 -212v-489h-183v489c0 16 -13 29 -29 29h-165c-16 0 -29 -13 -29 -29zM262 820h223l-73 -90h-194z" />
    <glyph glyph-name="Acircumflex" unicode="&#xc2;" 
d="M203 489v-103h194v-183h-194v-203h-183v489c0 117 95 212 212 212h165c117 0 212 -95 212 -212v-489h-183v489c0 16 -13 29 -29 29h-165c-16 0 -29 -13 -29 -29zM99 726l58 73c12 14 25 17 42 17h236c17 0 29 -4 40 -17l58 -73h-193l-24 32h-6l-25 -32h-186z" />
    <glyph glyph-name="Atilde" unicode="&#xc3;" 
d="M203 489v-103h194v-183h-194v-203h-183v489c0 117 95 212 212 212h165c117 0 212 -95 212 -212v-489h-183v489c0 16 -13 29 -29 29h-165c-16 0 -29 -13 -29 -29zM180 728h-9l-45 59c138 97 220 -15 319 41h13l40 -46c-142 -128 -212 14 -318 -54z" />
    <glyph glyph-name="Adieresis" unicode="&#xc4;" 
d="M203 489v-103h194v-183h-194v-203h-183v489c0 117 95 212 212 212h165c117 0 212 -95 212 -212v-489h-183v489c0 16 -13 29 -29 29h-165c-16 0 -29 -13 -29 -29zM108 726v89h194v-89h-194zM326 726v89h194v-89h-194z" />
    <glyph glyph-name="Aring" unicode="&#xc5;" 
d="M203 489v-103h194v-183h-194v-203h-183v489c0 117 95 212 212 212h165c117 0 212 -95 212 -212v-489h-183v489c0 16 -13 29 -29 29h-165c-16 0 -29 -13 -29 -29zM218 822h193c62 0 60 -90 0 -90h-193c-60 0 -63 90 0 90zM258 770h112c9 0 8 13 0 13h-112
c-8 0 -8 -13 0 -13z" />
    <glyph glyph-name="Egrave" unicode="&#xc8;" horiz-adv-x="536" 
d="M517 0h-285c-117 0 -212 95 -212 212v277c0 117 95 212 212 212h285v-183h-285c-16 0 -29 -13 -29 -29v-47h314v-183h-314v-47c0 -16 13 -29 29 -29h285v-183zM170 822h223l44 -90h-194z" />
    <glyph glyph-name="Eacute" unicode="&#xc9;" horiz-adv-x="536" 
d="M517 0h-285c-117 0 -212 95 -212 212v277c0 117 95 212 212 212h285v-183h-285c-16 0 -29 -13 -29 -29v-47h314v-183h-314v-47c0 -16 13 -29 29 -29h285v-183zM295 823h223l-73 -90h-194z" />
    <glyph glyph-name="Ecircumflex" unicode="&#xca;" horiz-adv-x="536" 
d="M517 0h-285c-117 0 -212 95 -212 212v277c0 117 95 212 212 212h285v-183h-285c-16 0 -29 -13 -29 -29v-47h314v-183h-314v-47c0 -16 13 -29 29 -29h285v-183zM111 730l58 73c12 14 25 17 42 17h236c17 0 29 -4 40 -17l58 -73h-193l-24 32h-6l-25 -32h-186z" />
    <glyph glyph-name="Edieresis" unicode="&#xcb;" horiz-adv-x="536" 
d="M517 0h-285c-117 0 -212 95 -212 212v277c0 117 95 212 212 212h285v-183h-285c-16 0 -29 -13 -29 -29v-47h314v-183h-314v-47c0 -16 13 -29 29 -29h285v-183zM116 731v89h194v-89h-194zM334 731v89h194v-89h-194z" />
    <glyph glyph-name="Igrave" unicode="&#xcc;" horiz-adv-x="225" 
d="M22 700h183v-700h-183v700zM-56 822h223l44 -90h-194z" />
    <glyph glyph-name="Iacute" unicode="&#xcd;" horiz-adv-x="225" 
d="M22 700h183v-700h-183v700zM64 821h223l-73 -90h-194z" />
    <glyph glyph-name="Icircumflex" unicode="&#xce;" horiz-adv-x="225" 
d="M22 700h183v-700h-183v700zM-106 732l58 73c12 14 25 17 42 17h236c17 0 29 -4 40 -17l58 -73h-193l-24 32h-6l-25 -32h-186z" />
    <glyph glyph-name="Idieresis" unicode="&#xcf;" horiz-adv-x="225" 
d="M22 700h183v-700h-183v700zM-89 727v89h194v-89h-194zM129 727v89h194v-89h-194z" />
    <glyph glyph-name="Eth" unicode="&#xd0;" horiz-adv-x="665" 
d="M240 431h48v-165h-272v165h41v270h376c117 0 212 -95 212 -212v-277c0 -117 -95 -212 -212 -212h-376v245h183v-62h193c16 0 29 13 29 29v277c0 16 -13 29 -29 29h-193v-87z" />
    <glyph glyph-name="Ntilde" unicode="&#xd1;" horiz-adv-x="660" 
d="M457 701h183v-536c0 -185 -196 -221 -304 -127c-29 26 -51 64 -62 122c-19 94 -37 201 -56 295l-16 113l-10 -1l11 -116v-451h-183v539c0 185 196 222 303 127c29 -25 51 -64 63 -122c19 -93 37 -201 56 -294l16 -114l9 1l-10 132v432zM220 741h-9l-45 59
c138 97 220 -15 319 41h13l40 -46c-142 -128 -212 14 -318 -54z" />
    <glyph glyph-name="Ograve" unicode="&#xd2;" 
d="M609 488v-276c0 -117 -95 -212 -212 -212h-165c-117 0 -212 95 -212 212v276c0 117 95 212 212 212h165c117 0 212 -95 212 -212zM426 212v276c0 16 -13 29 -29 29h-165c-16 0 -29 -13 -29 -29v-276c0 -16 13 -29 29 -29h165c16 0 29 13 29 29zM144 824h223l44 -90h-194z
" />
    <glyph glyph-name="Oacute" unicode="&#xd3;" 
d="M609 488c0 117 -95 212 -212 212h-165c-117 0 -212 -95 -212 -212v-276c0 -117 95 -212 212 -212h165c117 0 212 95 212 212v276zM426 212c0 -16 -13 -29 -29 -29h-165c-16 0 -29 13 -29 29v276c0 16 13 29 29 29h165c16 0 29 -13 29 -29v-276zM258 820h223l-73 -90h-194
z" />
    <glyph glyph-name="Ocircumflex" unicode="&#xd4;" 
d="M609 488c0 117 -95 212 -212 212h-165c-117 0 -212 -95 -212 -212v-276c0 -117 95 -212 212 -212h165c117 0 212 95 212 212v276zM426 212c0 -16 -13 -29 -29 -29h-165c-16 0 -29 13 -29 29v276c0 16 13 29 29 29h165c16 0 29 -13 29 -29v-276zM101 728l58 73
c12 14 25 17 42 17h236c17 0 29 -4 40 -17l58 -73h-193l-24 32h-6l-25 -32h-186z" />
    <glyph glyph-name="Otilde" unicode="&#xd5;" 
d="M609 488c0 117 -95 212 -212 212h-165c-117 0 -212 -95 -212 -212v-276c0 -117 95 -212 212 -212h165c117 0 212 95 212 212v276zM426 212c0 -16 -13 -29 -29 -29h-165c-16 0 -29 13 -29 29v276c0 16 13 29 29 29h165c16 0 29 -13 29 -29v-276zM183 726h-9l-45 59
c138 97 220 -15 319 41h13l40 -46c-142 -128 -212 14 -318 -54z" />
    <glyph glyph-name="Odieresis" unicode="&#xd6;" 
d="M609 488v-276c0 -117 -95 -212 -212 -212h-165c-117 0 -212 95 -212 212v276c0 117 95 212 212 212h165c117 0 212 -95 212 -212zM426 212v276c0 16 -13 29 -29 29h-165c-16 0 -29 -13 -29 -29v-276c0 -16 13 -29 29 -29h165c16 0 29 13 29 29zM111 727v89h194v-89h-194z
M329 727v89h194v-89h-194z" />
    <glyph glyph-name="Oslash" unicode="&#xd8;" 
d="M609 488v-276c0 -117 -95 -212 -212 -212h-153l-16 -31h-210l54 103c-32 38 -52 86 -52 140v276c0 117 95 212 212 212h150l16 30h215l-55 -104c32 -37 51 -86 51 -138zM426 212v276c0 16 -13 29 -29 29h-165c-16 0 -29 -13 -29 -29v-276c0 -16 13 -29 29 -29h165
c16 0 29 13 29 29z" />
    <glyph glyph-name="Ugrave" unicode="&#xd9;" horiz-adv-x="628" 
d="M425 700h183v-488c0 -117 -95 -212 -212 -212h-164c-117 0 -212 95 -212 212v488h183v-488c0 -16 13 -29 29 -29h164c16 0 29 13 29 29v488zM152 823h223l44 -90h-194z" />
    <glyph glyph-name="Uacute" unicode="&#xda;" horiz-adv-x="628" 
d="M608 700h-183v-488c0 -16 -13 -29 -29 -29h-164c-16 0 -29 13 -29 29v488h-183v-488c0 -117 95 -212 212 -212h164c117 0 212 95 212 212v488zM261 823h223l-73 -90h-194z" />
    <glyph glyph-name="Ucircumflex" unicode="&#xdb;" horiz-adv-x="628" 
d="M608 700h-183v-488c0 -16 -13 -29 -29 -29h-164c-16 0 -29 13 -29 29v488h-183v-488c0 -117 95 -212 212 -212h164c117 0 212 95 212 212v488zM104 731l58 73c12 14 25 17 42 17h236c17 0 29 -4 40 -17l58 -73h-193l-24 32h-6l-25 -32h-186z" />
    <glyph glyph-name="Udieresis" unicode="&#xdc;" horiz-adv-x="628" 
d="M425 700h183v-488c0 -117 -95 -212 -212 -212h-164c-117 0 -212 95 -212 212v488h183v-488c0 -16 13 -29 29 -29h164c16 0 29 13 29 29v488zM108 729v89h194v-89h-194zM326 729v89h194v-89h-194z" />
    <glyph glyph-name="Yacute" unicode="&#xdd;" horiz-adv-x="626" 
d="M615 700l-84 -299c-21 -76 -69 -126 -126 -151v-250h-183v252c-57 25 -105 75 -126 149l-85 299h191l73 -258c12 -36 62 -47 77 0l72 258h191zM256 818h223l-73 -90h-194z" />
    <glyph glyph-name="germandbls" unicode="&#xdf;" horiz-adv-x="603" 
d="M202 492v-492h-182v489c0 117 79 212 196 212h133c187 0 269 -226 165 -335c127 -79 102 -366 -141 -366h-141v183h131c56 0 57 76 -1 76h-130v183h113c51 0 48 79 0 79h-113c-16 0 -30 -13 -30 -29z" />
    <glyph glyph-name="Thorn" unicode="&#xde;" horiz-adv-x="628" 
d="M21 0v700h183v-85h193c117 0 212 -95 212 -212v-126c0 -117 -95 -212 -212 -212h-164v183h164c16 0 29 13 29 29v126c0 16 -13 29 -29 29h-193v-432h-183z" />
    <glyph glyph-name="thorn" unicode="&#xfe;" horiz-adv-x="628" 
d="M20 -112v812h183v-111h194c117 0 212 -95 212 -212v-165c0 -117 -95 -212 -212 -212h-165v183h165c16 0 29 13 29 29v165c0 16 -13 29 -29 29h-194v-518h-183z" />
    <glyph glyph-name="agrave" unicode="&#xe0;" 
d="M397 0h-165c-117 0 -212 95 -212 212v165c0 117 95 212 212 212h165c117 0 212 -95 212 -212v-377h-183v377c0 16 -13 29 -29 29h-165c-16 0 -29 -13 -29 -29v-165c0 -16 13 -29 29 -29h165v-183zM148 705h223l44 -90h-194z" />
    <glyph glyph-name="aacute" unicode="&#xe1;" 
d="M397 0h-165c-117 0 -212 95 -212 212v165c0 117 95 212 212 212h165c117 0 212 -95 212 -212v-377h-183v377c0 16 -13 29 -29 29h-165c-16 0 -29 -13 -29 -29v-165c0 -16 13 -29 29 -29h165v-183zM263 705h223l-73 -90h-194z" />
    <glyph glyph-name="acircumflex" unicode="&#xe2;" 
d="M397 0h-165c-117 0 -212 95 -212 212v165c0 117 95 212 212 212h165c117 0 212 -95 212 -212v-377h-183v377c0 16 -13 29 -29 29h-165c-16 0 -29 -13 -29 -29v-165c0 -16 13 -29 29 -29h165v-183zM110 618l58 73c12 14 25 17 42 17h236c17 0 29 -4 40 -17l58 -73h-193
l-24 32h-6l-25 -32h-186z" />
    <glyph glyph-name="atilde" unicode="&#xe3;" 
d="M397 0h-165c-117 0 -212 95 -212 212v165c0 117 95 212 212 212h165c117 0 212 -95 212 -212v-377h-183v377c0 16 -13 29 -29 29h-165c-16 0 -29 -13 -29 -29v-165c0 -16 13 -29 29 -29h165v-183zM182 608h-9l-45 59c138 97 220 -15 319 41h13l40 -46
c-142 -128 -212 14 -318 -54z" />
    <glyph glyph-name="adieresis" unicode="&#xe4;" 
d="M397 0h-165c-117 0 -212 95 -212 212v165c0 117 95 212 212 212h165c117 0 212 -95 212 -212v-377h-183v377c0 16 -13 29 -29 29h-165c-16 0 -29 -13 -29 -29v-165c0 -16 13 -29 29 -29h165v-183zM111 615v89h194v-89h-194zM329 615v89h194v-89h-194z" />
    <glyph glyph-name="aring" unicode="&#xe5;" 
d="M397 0h-165c-117 0 -212 95 -212 212v165c0 117 95 212 212 212h165c117 0 212 -95 212 -212v-377h-183v377c0 16 -13 29 -29 29h-165c-16 0 -29 -13 -29 -29v-165c0 -16 13 -29 29 -29h165v-183zM224 699h193c62 0 60 -90 0 -90h-193c-60 0 -63 90 0 90zM264 647h112
c9 0 8 13 0 13h-112c-8 0 -8 -13 0 -13z" />
    <glyph glyph-name="ae" unicode="&#xe6;" horiz-adv-x="1029" 
d="M397 0h-165c-117 0 -212 95 -212 212v165c0 117 95 212 212 212h165c45 0 93 -20 120 -59c26 38 76 59 121 59h164c130 0 248 -102 201 -252l-40 -126h-183l49 158c6 20 -6 37 -27 37h-164c-16 0 -29 -13 -29 -29v-165c0 -16 13 -29 29 -29h374v-183h-374
c-117 0 -212 95 -212 212v165c0 16 -13 29 -29 29h-165c-16 0 -29 -13 -29 -29v-165c0 -16 13 -29 29 -29h165v-183z" />
    <glyph glyph-name="ccedilla" unicode="&#xe7;" horiz-adv-x="539" 
d="M212 -121l20 56c39 -34 63 21 7 18l19 47h-25c-118 0 -213 95 -213 212v165c0 117 95 212 213 212h285v-183h-285c-17 0 -30 -13 -30 -29v-165c0 -16 13 -29 30 -29h285v-183h-146l-8 -20c39 -13 60 -39 50 -79c-19 -74 -150 -97 -202 -22z" />
    <glyph glyph-name="egrave" unicode="&#xe8;" horiz-adv-x="622" 
d="M597 337l-40 -126h-183l49 158c6 20 -6 37 -27 37h-164c-16 0 -29 -13 -29 -29v-165c0 -16 13 -29 29 -29h374v-183h-374c-117 0 -212 95 -212 212v165c0 117 95 212 212 212h164c130 0 248 -102 201 -252zM166 707h223l44 -90h-194z" />
    <glyph glyph-name="eacute" unicode="&#xe9;" horiz-adv-x="622" 
d="M557 211l40 126c47 150 -71 252 -201 252h-164c-117 0 -212 -95 -212 -212v-165c0 -117 95 -212 212 -212h374v183h-374c-16 0 -29 13 -29 29v165c0 16 13 29 29 29h164c21 0 33 -17 27 -37l-49 -158h183zM261 707h223l-73 -90h-194z" />
    <glyph glyph-name="ecircumflex" unicode="&#xea;" horiz-adv-x="622" 
d="M557 211l40 126c47 150 -71 252 -201 252h-164c-117 0 -212 -95 -212 -212v-165c0 -117 95 -212 212 -212h374v183h-374c-16 0 -29 13 -29 29v165c0 16 13 29 29 29h164c21 0 33 -17 27 -37l-49 -158h183zM121 616l58 73c12 14 25 17 42 17h236c17 0 29 -4 40 -17l58 -73
h-193l-24 32h-6l-25 -32h-186z" />
    <glyph glyph-name="edieresis" unicode="&#xeb;" horiz-adv-x="622" 
d="M597 337l-40 -126h-183l49 158c6 20 -6 37 -27 37h-164c-16 0 -29 -13 -29 -29v-165c0 -16 13 -29 29 -29h374v-183h-374c-117 0 -212 95 -212 212v165c0 117 95 212 212 212h164c130 0 248 -102 201 -252zM115 614v89h194v-89h-194zM333 614v89h194v-89h-194z" />
    <glyph glyph-name="igrave" unicode="&#xec;" horiz-adv-x="223" 
d="M203 0h-183v583h183v-583zM-61 702h223l44 -90h-194z" />
    <glyph glyph-name="iacute" unicode="&#xed;" horiz-adv-x="223" 
d="M20 0h183v585h-183v-585zM45 707h223l-73 -90h-194z" />
    <glyph glyph-name="icircumflex" unicode="&#xee;" horiz-adv-x="223" 
d="M20 0h183v585h-183v-585zM-101 617l58 73c12 14 25 17 42 17h236c17 0 29 -4 40 -17l58 -73h-193l-24 32h-6l-25 -32h-186z" />
    <glyph glyph-name="idieresis" unicode="&#xef;" horiz-adv-x="223" 
d="M203 0h-183v587h183v-587zM-92 615v89h194v-89h-194zM126 615v89h194v-89h-194z" />
    <glyph glyph-name="eth" unicode="&#xf0;" horiz-adv-x="592" 
d="M346 469l-66 68l36 29l-125 134h232l24 -28l33 27l65 -69l-35 -28l8 -8c60 -60 56 -93 56 -133v-250c0 -117 -95 -212 -212 -212h-132c-117 0 -212 95 -212 212v27c0 117 95 212 212 212h132v-183h-132c-16 0 -29 -13 -29 -29v-27c0 -16 13 -29 29 -29h132
c16 0 29 13 29 29v258c0 16 -7 24 -7 24l-4 4z" />
    <glyph glyph-name="ntilde" unicode="&#xf1;" horiz-adv-x="628" 
d="M232 406h164c16 0 29 -13 29 -29v-377h183v377c0 117 -95 212 -212 212h-164c-117 0 -212 -95 -212 -212v-377h183v377c0 16 13 29 29 29zM180 613h-9l-45 59c138 97 220 -15 319 41h13l40 -46c-142 -128 -212 14 -318 -54z" />
    <glyph glyph-name="ograve" unicode="&#xf2;" 
d="M233 589h164c117 0 212 -95 212 -212v-165c0 -117 -95 -212 -212 -212h-164c-117 0 -213 95 -213 212v165c0 117 96 212 213 212zM397 406h-164c-16 0 -30 -13 -30 -29v-165c0 -16 14 -29 30 -29h164c16 0 29 13 29 29v165c0 16 -13 29 -29 29zM154 708h223l44 -90h-194z
" />
    <glyph glyph-name="oacute" unicode="&#xf3;" 
d="M397 589h-164c-117 0 -213 -95 -213 -212v-165c0 -117 96 -212 213 -212h164c117 0 212 95 212 212v165c0 117 -95 212 -212 212zM233 406h164c16 0 29 -13 29 -29v-165c0 -16 -13 -29 -29 -29h-164c-16 0 -30 13 -30 29v165c0 16 14 29 30 29zM252 711h223l-73 -90h-194
z" />
    <glyph glyph-name="ocircumflex" unicode="&#xf4;" 
d="M397 589h-164c-117 0 -213 -95 -213 -212v-165c0 -117 96 -212 213 -212h164c117 0 212 95 212 212v165c0 117 -95 212 -212 212zM233 406h164c16 0 29 -13 29 -29v-165c0 -16 -13 -29 -29 -29h-164c-16 0 -30 13 -30 29v165c0 16 14 29 30 29zM103 616l58 73
c12 14 25 17 42 17h236c17 0 29 -4 40 -17l58 -73h-193l-24 32h-6l-25 -32h-186z" />
    <glyph glyph-name="otilde" unicode="&#xf5;" 
d="M397 589h-164c-117 0 -213 -95 -213 -212v-165c0 -117 96 -212 213 -212h164c117 0 212 95 212 212v165c0 117 -95 212 -212 212zM233 406h164c16 0 29 -13 29 -29v-165c0 -16 -13 -29 -29 -29h-164c-16 0 -30 13 -30 29v165c0 16 14 29 30 29zM181 612h-9l-45 59
c138 97 220 -15 319 41h13l40 -46c-142 -128 -212 14 -318 -54z" />
    <glyph glyph-name="odieresis" unicode="&#xf6;" 
d="M233 589h164c117 0 212 -95 212 -212v-165c0 -117 -95 -212 -212 -212h-164c-117 0 -213 95 -213 212v165c0 117 96 212 213 212zM397 406h-164c-16 0 -30 -13 -30 -29v-165c0 -16 14 -29 30 -29h164c16 0 29 13 29 29v165c0 16 -13 29 -29 29zM110 611v89h194v-89h-194z
M328 611v89h194v-89h-194z" />
    <glyph glyph-name="oslash" unicode="&#xf8;" 
d="M609 376v-164c0 -117 -95 -212 -212 -212h-153l-16 -31h-210l54 103c-32 38 -52 86 -52 140v164c0 117 95 212 212 212h150l16 30h215l-55 -104c32 -37 51 -86 51 -138zM426 212v164c0 16 -13 29 -29 29h-165c-16 0 -29 -13 -29 -29v-164c0 -16 13 -29 29 -29h165
c16 0 29 13 29 29z" />
    <glyph glyph-name="ugrave" unicode="&#xf9;" horiz-adv-x="628" 
d="M232 183h164c16 0 29 13 29 29v377h183v-377c0 -117 -95 -212 -212 -212h-164c-117 0 -212 95 -212 212v377h183v-377c0 -16 13 -29 29 -29zM151 706h223l44 -90h-194z" />
    <glyph glyph-name="uacute" unicode="&#xfa;" horiz-adv-x="628" 
d="M396 183h-164c-16 0 -29 13 -29 29v377h-183v-377c0 -117 95 -212 212 -212h164c117 0 212 95 212 212v377h-183v-377c0 -16 -13 -29 -29 -29zM255 709h223l-73 -90h-194z" />
    <glyph glyph-name="ucircumflex" unicode="&#xfb;" horiz-adv-x="628" 
d="M396 183h-164c-16 0 -29 13 -29 29v377h-183v-377c0 -117 95 -212 212 -212h164c117 0 212 95 212 212v377h-183v-377c0 -16 -13 -29 -29 -29zM94 618l58 73c12 14 25 17 42 17h236c17 0 29 -4 40 -17l58 -73h-193l-24 32h-6l-25 -32h-186z" />
    <glyph glyph-name="udieresis" unicode="&#xfc;" horiz-adv-x="628" 
d="M232 183h164c16 0 29 13 29 29v377h183v-377c0 -117 -95 -212 -212 -212h-164c-117 0 -212 95 -212 212v377h183v-377c0 -16 13 -29 29 -29zM108 613v89h194v-89h-194zM326 613v89h194v-89h-194z" />
    <glyph glyph-name="yacute" unicode="&#xfd;" horiz-adv-x="632" 
d="M343 183h86v406h183v-701h-183v114c-10 -1 -20 -2 -30 -2h-56c-101 0 -179 73 -207 166l-128 423h190l118 -386c4 -12 15 -20 27 -20zM257 709h223l-73 -90h-194z" />
    <glyph glyph-name="ydieresis" unicode="&#xff;" horiz-adv-x="632" 
d="M343 183h86v406h183v-701h-183v114c-10 -1 -20 -2 -30 -2h-56c-101 0 -179 73 -207 166l-128 423h190l118 -386c4 -12 15 -20 27 -20zM119 620v89h194v-89h-194zM337 620v89h194v-89h-194z" />
  </font>
</defs>
</svg>
